<?xml version="1.0" encoding="utf-8"?>
<!-- Generator: Adobe Illustrator 27.1.1, SVG Export Plug-In . SVG Version: 6.00 Build 0)  -->
<svg version="1.1" id="Layer_1" xmlns="http://www.w3.org/2000/svg" xmlns:xlink="http://www.w3.org/1999/xlink" x="0px" y="0px"
	 viewBox="0 0 30 30" style="enable-background:new 0 0 30 30;" xml:space="preserve">
<style type="text/css">
	.st0{fill:#1F8CEB;}
</style>
<g>
	<path class="st0" d="M4,8.4c0-0.6,0.5-1.1,1.1-1.1h8.8c0.6,0,1.1,0.5,1.1,1.1s-0.5,1.1-1.1,1.1H5.1C4.5,9.5,4,9,4,8.4z"/>
	<path class="st0" d="M4,15c0-0.6,0.5-1.1,1.1-1.1h19.8c0.6,0,1.1,0.5,1.1,1.1s-0.5,1.1-1.1,1.1H5.1C4.5,16.1,4,15.6,4,15z"/>
	<path class="st0" d="M5.1,20.5C4.5,20.5,4,21,4,21.6s0.5,1.1,1.1,1.1h13.2c0.6,0,1.1-0.5,1.1-1.1s-0.5-1.1-1.1-1.1H5.1z"/>
</g>
</svg>
